<?xml version="1.0" standalone="no"?>
<!DOCTYPE svg PUBLIC "-//W3C//DTD SVG 20010904//EN"
 "http://www.w3.org/TR/2001/REC-SVG-20010904/DTD/svg10.dtd">
<svg version="1.0" xmlns="http://www.w3.org/2000/svg"
 width="736.000000pt" height="744.000000pt" viewBox="0 0 736.000000 744.000000"
 preserveAspectRatio="xMidYMid meet">

<g transform="translate(0.000000,744.000000) scale(0.100000,-0.100000)"
fill="#000000" stroke="none">
<path d="M2891 6979 c-67 -14 -111 -68 -98 -120 4 -13 94 -130 202 -259 l195
-235 -49 -50 c-114 -119 -395 -428 -381 -420 12 7 568 434 593 455 7 6 -335
572 -370 611 -18 21 -49 27 -92 18z"/>
<path d="M2300 5975 c-159 -33 -287 -102 -400 -215 -144 -144 -194 -271 -193
-495 1 -210 49 -346 164 -470 145 -154 390 -225 680 -196 319 32 516 155 590
369 30 85 42 244 29 366 -18 164 -57 255 -140 330 -69 62 -118 79 -247 84 -61
2 -124 1 -138 -2 -40 -10 -122 -92 -160 -161 -19 -34 -50 -108 -69 -166 l-35
-104 -1 60 c0 114 35 207 137 361 44 66 57 95 61 133 4 43 1 53 -21 74 -46 47
-133 57 -257 32z"/>
<path d="M4990 5501 l-1615 -216 3 -25 c2 -14 6 -27 8 -29 2 -2 695 88 1539
200 844 113 1531 202 1527 198 -4 -4 -259 -119 -567 -257 -625 -279 -1249
-558 -2325 -1039 l-725 -324 -140 -11 c-188 -14 -665 -5 -825 16 -481 63 -840
207 -1081 433 -112 106 -242 306 -207 318 7 2 109 23 225 46 l213 42 -7 26
c-3 14 -7 27 -8 29 -1 1 -114 -20 -250 -48 -136 -27 -249 -50 -251 -50 -2 0
-4 -850 -4 -1889 l0 -1889 63 -79 c282 -348 723 -561 1317 -635 145 -18 709
-18 855 1 l109 13 556 250 c305 137 650 292 765 344 116 52 734 330 1375 618
l1165 523 3 431 c1 241 -2 432 -7 432 -4 0 -102 -42 -217 -94 -338 -153 -2461
-1106 -3071 -1379 l-562 -252 -3 -405 -3 -405 -50 -7 c-198 -29 -622 -38 -826
-18 -640 64 -1106 283 -1382 651 l-27 36 0 1788 0 1788 52 -74 c222 -316 648
-523 1248 -604 152 -21 639 -31 837 -17 l152 11 1918 857 c1055 472 1920 859
1922 860 2 2 1 15 -3 29 -5 21 -12 25 -44 24 -20 -1 -764 -99 -1652 -218z"/>
<path d="M1475 5508 c-122 -96 -274 -252 -309 -317 -24 -44 -28 -62 -24 -106
6 -67 47 -153 131 -270 67 -93 206 -259 213 -253 2 2 -24 81 -56 176 -77 224
-103 325 -98 383 6 60 68 184 168 338 44 67 76 121 72 121 -4 0 -47 -33 -97
-72z"/>
<path d="M6095 5139 c-330 -148 -780 -351 -1000 -450 -220 -98 -814 -365
-1320 -593 l-920 -413 -3 -433 c-2 -409 -1 -432 15 -427 10 2 598 266 1308
585 710 319 1558 700 1885 847 327 147 607 274 623 281 l27 15 0 429 c0 237
-3 430 -7 430 -5 -1 -278 -122 -608 -271z"/>
<path d="M3370 5192 c144 -99 245 -192 256 -239 8 -29 -31 -112 -85 -183 -22
-30 -98 -113 -168 -184 l-128 -128 114 57 c343 171 550 346 551 467 0 59 -91
124 -235 167 -74 22 -274 61 -309 60 -20 0 -19 -1 4 -17z"/>
<path d="M1749 4625 c114 -203 289 -413 389 -464 82 -42 160 -18 308 95 79 60
247 218 224 210 -8 -2 -64 -26 -125 -51 -150 -63 -301 -115 -335 -115 -48 0
-171 92 -399 299 l-95 86 33 -60z"/>
<path d="M4763 3288 l-1913 -861 0 -434 c0 -239 3 -432 8 -430 4 2 872 392
1930 867 l1922 863 0 428 c0 402 -1 429 -17 428 -10 -1 -879 -388 -1930 -861z"/>
</g>
</svg>
