<?xml version="1.0" standalone="no"?>
<!DOCTYPE svg PUBLIC "-//W3C//DTD SVG 20010904//EN"
 "http://www.w3.org/TR/2001/REC-SVG-20010904/DTD/svg10.dtd">
<svg version="1.0" xmlns="http://www.w3.org/2000/svg"
 width="700.000000pt" height="700.000000pt" viewBox="0 0 700.000000 700.000000"
 preserveAspectRatio="xMidYMid meet">
<metadata>
Created by potrace 1.14, written by Peter Selinger 2001-2017
</metadata>
<g transform="translate(0.000000,700.000000) scale(0.100000,-0.100000)"
fill="#000000" stroke="none">
<path d="M1879 6481 c-2 -29 0 -933 3 -936 2 -2 179 -5 393 -7 l390 -3 83
-205 c45 -113 89 -218 96 -235 7 -16 39 -94 71 -172 l58 -142 -80 -133 c-44
-73 -180 -302 -303 -508 -122 -206 -230 -386 -239 -400 -25 -39 -40 -64 -48
-80 -4 -8 -65 -111 -135 -228 -70 -117 -128 -217 -128 -223 0 -5 -4 -9 -10 -9
-5 0 -10 -4 -10 -9 0 -4 -31 -60 -68 -122 -38 -63 -208 -348 -379 -634 -334
-560 -386 -648 -545 -913 -56 -95 -111 -187 -122 -205 -53 -92 -371 -627 -392
-658 -12 -20 -20 -39 -17 -42 3 -3 289 -6 637 -7 l631 0 64 102 c36 57 95 149
131 204 37 56 70 108 73 115 4 8 85 136 182 284 96 149 203 315 237 369 131
208 429 674 576 901 46 72 104 162 129 200 50 78 293 452 326 503 l22 32 21
-47 c12 -27 58 -145 103 -263 45 -118 91 -234 102 -257 10 -24 19 -47 19 -52
0 -8 32 -94 51 -136 5 -11 36 -90 68 -175 112 -296 173 -456 216 -565 23 -60
57 -148 75 -195 18 -47 47 -123 65 -170 18 -47 72 -186 120 -310 153 -397 306
-780 314 -785 5 -2 158 41 342 96 184 55 341 102 349 104 8 2 98 29 200 60
102 31 192 58 200 60 8 2 89 27 180 55 91 29 179 55 195 60 57 15 356 109 365
115 6 4 10 12 10 19 0 12 -94 331 -134 456 -8 25 -47 145 -86 266 l-70 222
-33 -8 c-17 -4 -52 -15 -77 -23 -25 -8 -61 -20 -80 -25 -19 -5 -120 -38 -225
-72 -104 -33 -197 -63 -205 -65 -8 -1 -55 -16 -105 -33 -149 -50 -130 -61
-202 123 -35 88 -73 185 -84 215 -12 30 -27 69 -34 85 -7 17 -26 66 -43 110
-17 44 -74 193 -127 330 -341 884 -611 1583 -692 1795 -51 135 -98 254 -103
265 -8 18 -52 132 -55 145 -1 3 -6 14 -10 25 -10 24 -302 781 -350 905 -17 47
-97 253 -176 457 l-144 373 -150 0 c-82 1 -439 2 -792 4 -354 2 -643 0 -644
-3z"/>
</g>
</svg>
